<?xml version="1.0" standalone="no"?>
<!DOCTYPE svg PUBLIC "-//W3C//DTD SVG 20010904//EN"
 "http://www.w3.org/TR/2001/REC-SVG-20010904/DTD/svg10.dtd">
<svg version="1.0" xmlns="http://www.w3.org/2000/svg"
 width="1200.000000pt" height="1200.000000pt" viewBox="0 0 1200.000000 1200.000000"
 preserveAspectRatio="xMidYMid meet">

<g transform="translate(0.000000,1200.000000) scale(0.100000,-0.100000)"
fill="#000000" stroke="none">
<path d="M5650 11496 c0 -23 4 -25 53 -28 l52 -3 0 -240 c1 -224 2 -243 22
-280 26 -50 64 -86 123 -116 37 -20 60 -24 135 -24 81 0 95 3 145 30 61 34
114 97 129 153 6 20 13 133 17 250 l7 212 54 0 c52 0 53 0 53 30 l0 30 -150 0
-150 0 0 -25 c0 -22 4 -24 58 -27 l57 -3 -3 -205 c-2 -113 -8 -222 -13 -243
-11 -43 -59 -101 -101 -123 -35 -18 -121 -20 -163 -4 -40 15 -63 37 -87 84
-22 43 -24 72 -20 324 l2 172 60 0 60 0 0 30 0 30 -170 0 -170 0 0 -24z"/>
<path d="M7027 11424 c-4 -4 -7 -16 -7 -26 0 -13 12 -21 46 -29 73 -19 75 -34
31 -203 -84 -323 -100 -381 -103 -385 -2 -2 -28 3 -59 12 -58 16 -55 17 -59
-24 -1 -13 272 -91 286 -83 4 3 8 13 8 24 0 18 -44 40 -81 40 -11 0 -19 7 -19
16 0 15 94 380 106 414 5 14 80 -133 221 -435 67 -143 78 -161 102 -168 15 -4
22 13 50 117 17 66 49 186 71 266 22 80 46 167 52 193 10 42 15 48 32 43 12
-3 37 -9 57 -12 31 -5 37 -3 42 16 4 16 0 23 -20 31 -51 19 -201 59 -234 61
-30 3 -34 0 -34 -22 0 -20 7 -26 44 -35 25 -6 46 -16 49 -23 2 -6 -8 -51 -21
-99 -14 -49 -37 -136 -53 -195 -15 -60 -30 -108 -34 -108 -3 0 -69 129 -146
288 l-140 287 -55 17 c-73 23 -123 31 -132 22z"/>
<path d="M4427 11329 c-9 -6 -17 -16 -17 -24 0 -7 -15 -18 -32 -25 -72 -26
-491 -170 -494 -170 -2 0 -4 7 -4 15 0 18 -11 19 -33 2 -17 -11 -16 -17 10
-90 24 -67 30 -76 48 -71 27 9 26 7 14 42 -6 17 -9 37 -7 43 4 11 199 82 205
75 2 -2 43 -120 92 -262 49 -142 92 -267 96 -276 5 -14 -4 -20 -49 -33 -63
-18 -67 -23 -59 -54 4 -16 10 -20 22 -15 9 3 54 20 101 36 230 78 231 79 224
102 -4 11 -7 22 -9 24 -1 1 -28 -7 -60 -18 -33 -11 -61 -16 -64 -11 -18 29
-185 541 -178 547 4 4 50 22 103 40 l96 32 17 -39 c13 -31 20 -37 36 -33 11 4
21 8 23 9 5 4 -49 155 -57 159 -4 3 -14 0 -24 -5z"/>
<path d="M5016 11132 l-128 -26 6 -50 c3 -27 7 -51 10 -53 6 -6 251 38 267 48
15 9 0 101 -16 105 -5 1 -68 -10 -139 -24z"/>
<path d="M8360 10961 c-14 -26 -16 -23 35 -51 25 -14 45 -28 45 -33 0 -5 -17
-41 -39 -80 -21 -40 -57 -107 -80 -149 -22 -43 -58 -111 -80 -150 -21 -40 -46
-88 -55 -105 l-16 -33 -50 28 c-43 23 -52 25 -60 12 -5 -8 -8 -19 -7 -24 5
-16 277 -158 292 -152 27 10 15 35 -29 61 -52 31 -55 17 32 180 30 55 83 156
119 225 36 69 69 129 73 133 4 4 27 -4 51 -18 54 -31 53 -31 67 -1 11 24 8 27
-133 100 -80 42 -147 76 -150 76 -2 0 -9 -9 -15 -19z"/>
<path d="M3183 10732 c-65 -18 -402 -217 -403 -238 0 -6 6 -17 14 -24 12 -9
22 -6 53 14 21 14 42 26 48 26 8 0 300 -457 313 -490 2 -4 -18 -21 -43 -36
-50 -32 -50 -33 -32 -58 12 -16 18 -14 80 26 37 24 97 61 133 83 191 115 249
182 274 317 16 82 -13 189 -73 270 -33 44 -116 96 -182 113 -73 19 -103 18
-182 -3z m114 -77 c69 -20 145 -90 185 -169 27 -52 31 -72 32 -136 0 -113 -33
-165 -153 -240 l-53 -34 -19 25 c-10 13 -46 70 -81 127 -35 56 -74 120 -88
142 -58 92 -122 201 -119 203 2 1 19 13 37 25 55 39 135 72 173 72 19 0 58 -7
86 -15z"/>
<path d="M8993 10611 c-11 -17 -9 -23 12 -39 14 -11 25 -28 25 -38 0 -11 -15
-77 -34 -149 -147 -565 -143 -545 -115 -545 10 0 215 120 509 296 98 59 106
62 127 49 29 -19 36 -19 50 4 11 18 5 26 -68 80 -44 34 -83 61 -87 61 -4 0
-13 -9 -20 -20 -10 -17 -8 -22 18 -42 17 -12 30 -25 30 -29 0 -5 -394 -246
-424 -258 -5 -2 -7 7 -4 20 11 51 119 464 123 467 2 2 19 -8 38 -22 l34 -26
18 20 c11 12 15 24 9 29 -29 26 -215 161 -222 161 -4 0 -13 -9 -19 -19z"/>
<path d="M2147 9943 c-113 -112 -117 -118 -100 -135 17 -17 20 -16 55 17 20
19 40 35 44 35 8 0 397 -398 403 -412 2 -6 -14 -27 -35 -49 -36 -37 -37 -40
-21 -56 16 -16 20 -14 75 39 31 31 118 115 192 187 l135 130 -52 53 c-50 50
-54 52 -70 35 -16 -16 -15 -19 15 -50 l32 -33 -88 -87 c-48 -48 -92 -87 -98
-87 -6 0 -48 39 -94 88 -46 48 -135 140 -198 205 l-116 117 37 38 c20 21 37
41 37 46 0 7 -25 36 -32 36 -2 0 -56 -53 -121 -117z"/>
<path d="M9922 9837 c-8 -9 -2 -23 24 -52 19 -22 34 -42 34 -46 0 -3 -30 -32
-67 -64 -80 -70 -248 -222 -313 -282 -25 -24 -50 -43 -56 -43 -6 0 -25 16 -41
35 -33 38 -45 42 -61 22 -11 -13 8 -37 232 -286 60 -66 112 -121 115 -121 3 0
28 19 54 41 46 39 47 42 31 60 -16 18 -18 18 -47 -7 l-30 -26 -31 34 c-16 18
-54 59 -83 90 -29 31 -53 63 -53 70 0 12 168 168 190 176 4 1 36 -29 70 -68
l63 -71 -27 -28 c-25 -26 -26 -28 -8 -44 17 -15 22 -12 92 52 71 66 74 70 58
87 -17 17 -19 17 -41 -4 -13 -12 -26 -22 -30 -22 -7 0 -73 70 -109 115 l-22
28 89 84 c50 45 93 83 97 83 7 0 51 -46 133 -138 l38 -43 -28 -30 c-27 -27
-28 -31 -13 -46 15 -14 21 -12 77 37 34 29 61 56 61 60 0 15 -28 30 -43 24
-11 -4 -27 7 -49 32 -18 20 -44 50 -58 65 -14 15 -67 75 -119 133 -52 58 -100
106 -107 106 -6 0 -16 -6 -22 -13z"/>
<path d="M1640 9256 c-115 -33 -182 -86 -230 -181 -31 -62 -35 -77 -35 -149 0
-154 74 -275 210 -342 52 -25 71 -29 145 -29 136 0 239 50 305 150 44 67 59
128 53 220 -11 169 -124 297 -296 334 -66 14 -95 13 -152 -3z m165 -122 c110
-54 186 -144 207 -247 14 -68 1 -121 -43 -172 -65 -74 -190 -84 -313 -27 -240
113 -282 403 -68 473 49 16 156 2 217 -27z"/>
<path d="M10626 8945 c-18 -13 -17 -15 7 -59 l25 -46 -26 -18 c-26 -18 -61
-38 -207 -118 -38 -21 -117 -64 -175 -95 l-105 -58 -22 37 c-12 20 -26 43 -30
50 -7 11 -11 11 -27 -1 -18 -13 -15 -20 59 -156 43 -78 81 -143 85 -146 4 -2
15 2 25 9 17 12 16 15 -10 60 -15 26 -26 48 -24 50 18 14 208 116 217 116 6 0
18 -14 27 -30 15 -30 15 -32 -65 -188 -44 -86 -80 -163 -80 -171 0 -22 72
-151 84 -151 31 1 37 16 21 53 -20 48 -15 66 57 210 54 109 59 116 78 105 11
-7 20 -16 20 -19 0 -13 81 -39 118 -39 72 1 152 53 178 116 19 44 18 80 -4
134 -19 50 -194 370 -202 370 -3 -1 -13 -7 -24 -15z m125 -273 c39 -71 40
-129 2 -167 -55 -55 -148 -73 -195 -36 -27 22 -81 116 -76 132 5 15 210 129
226 126 8 -1 27 -26 43 -55z"/>
<path d="M6095 8850 c-286 -15 -481 -72 -656 -191 -70 -47 -166 -152 -174
-189 -11 -49 -39 -65 -114 -65 -57 0 -72 4 -111 30 -24 17 -54 44 -65 61 -20
29 -59 139 -70 195 -8 45 -50 77 -112 85 -92 11 -231 -1 -303 -27 -74 -27
-169 -109 -222 -190 -17 -27 -35 -49 -40 -49 -5 0 -33 -11 -63 -25 -65 -31
-140 -97 -192 -168 -78 -108 -166 -206 -247 -276 -104 -89 -111 -108 -111
-303 l0 -137 30 -31 c17 -17 51 -43 77 -57 34 -18 49 -34 53 -54 7 -29 -9
-191 -25 -263 -13 -61 -74 -198 -126 -287 l-44 -76 0 -110 c0 -61 -3 -125 -6
-142 -4 -17 -53 -95 -110 -174 -57 -78 -131 -189 -165 -247 -34 -58 -77 -123
-94 -145 -56 -69 -78 -122 -71 -169 8 -51 36 -99 72 -122 16 -11 55 -20 98
-23 l71 -6 6 -55 c3 -30 2 -93 -3 -139 -8 -71 -7 -91 8 -122 11 -25 14 -49 10
-71 -4 -18 -9 -56 -12 -85 -6 -52 -6 -52 30 -74 37 -22 66 -64 66 -95 0 -10
-21 -54 -47 -98 l-48 -81 1 -110 c0 -100 3 -116 31 -175 35 -77 93 -132 162
-154 25 -8 103 -19 173 -26 113 -10 369 -54 473 -81 52 -14 64 -33 65 -100 0
-72 27 -149 107 -306 76 -149 124 -265 150 -360 15 -58 18 -104 17 -305 l-1
-238 39 0 38 0 0 244 c0 232 -1 248 -26 332 -28 98 -91 238 -160 355 -67 115
-95 205 -101 327 l-6 102 35 0 c61 0 141 19 207 50 73 34 96 37 106 13 7 -19
7 -18 -105 -115 -30 -26 -51 -50 -48 -53 7 -8 90 33 151 75 45 30 46 31 53
101 11 111 24 125 299 311 243 164 274 188 323 248 26 31 52 64 57 72 6 9 29
19 52 22 35 5 45 2 62 -16 12 -12 23 -38 27 -57 3 -20 14 -76 25 -126 47 -208
110 -487 133 -590 l26 -110 -114 -170 c-135 -203 -290 -505 -329 -640 -14 -49
-51 -182 -83 -295 -31 -113 -73 -263 -94 -335 -20 -71 -35 -133 -33 -137 2 -5
26 -8 54 -8 27 0 49 3 49 8 0 28 43 249 69 354 63 254 154 495 302 793 84 171
101 197 305 470 120 160 229 304 243 320 28 34 30 36 216 270 80 100 179 210
268 296 194 186 214 203 456 388 159 121 216 160 225 152 7 -6 18 -30 25 -53
7 -23 26 -67 43 -98 35 -65 62 -171 53 -211 -5 -22 -13 -29 -44 -34 -55 -9
-137 -60 -171 -106 -46 -64 -64 -131 -62 -236 l1 -93 -42 0 c-192 -1 -299
-253 -228 -535 15 -59 25 -139 30 -235 5 -91 13 -156 22 -175 9 -19 35 -41 69
-60 30 -16 69 -45 87 -63 24 -25 40 -32 69 -32 34 0 46 9 138 104 56 57 113
111 128 121 22 13 54 17 151 19 141 3 185 18 220 72 12 19 25 34 28 34 4 0 10
-24 13 -54 13 -102 92 -226 154 -242 20 -6 22 -10 16 -43 -31 -161 18 -257
156 -306 132 -47 340 -14 429 68 73 68 101 155 108 332 6 138 5 142 -22 200
-56 121 -44 246 31 336 41 50 73 147 81 249 7 95 -19 169 -83 241 -50 57 -50
53 -33 244 13 146 4 221 -38 305 -19 37 -42 65 -71 85 -43 29 -46 30 -165 29
-85 0 -140 -6 -181 -18 -32 -9 -60 -15 -62 -13 -3 2 0 16 6 31 12 33 13 89 1
102 -15 17 -32 104 -24 132 3 15 34 68 68 118 139 202 184 431 151 759 -29
284 -71 503 -138 720 -87 282 -309 800 -399 932 -167 245 -511 444 -884 512
-212 39 -544 55 -820 41z m625 -94 c69 -8 170 -28 225 -44 95 -28 315 -107
380 -137 17 -8 59 -26 95 -40 85 -36 131 -69 211 -151 103 -108 155 -186 245
-367 107 -218 135 -286 183 -448 22 -74 54 -179 71 -234 59 -187 69 -228 95
-377 63 -376 70 -661 20 -818 -15 -47 -31 -89 -36 -94 -12 -13 -11 -11 5 50 9
35 11 68 5 110 -4 32 -15 136 -24 229 -32 342 -66 559 -116 740 -10 39 -37
142 -60 230 -93 370 -132 469 -273 693 -124 199 -167 250 -271 321 -95 66
-162 96 -355 160 -277 91 -457 121 -740 121 -251 0 -535 -33 -680 -80 -82 -27
-220 -90 -220 -102 0 -16 50 -8 106 17 86 38 179 63 325 87 111 18 174 22 364
22 356 1 587 -41 935 -169 25 -9 98 -44 162 -77 102 -53 128 -72 196 -142 77
-81 194 -247 266 -377 47 -86 102 -256 127 -394 20 -108 91 -376 129 -485 35
-100 55 -316 66 -705 8 -270 10 -259 -70 -365 -48 -65 -54 -70 -83 -70 -17 0
-23 6 -23 23 0 25 28 126 55 197 15 39 16 68 11 210 -7 174 -32 554 -42 630
-8 61 -41 171 -75 252 -34 79 -61 181 -89 340 -23 130 -75 309 -110 378 -41
81 -140 224 -193 279 -99 102 -241 188 -437 264 -63 25 -135 48 -160 52 -25 3
-53 9 -62 11 -10 3 -18 1 -18 -3 0 -5 51 -26 113 -47 143 -49 303 -124 381
-180 84 -60 180 -165 215 -234 35 -71 79 -205 126 -386 37 -145 51 -179 98
-234 37 -45 34 -55 -10 -35 -85 38 -124 95 -176 253 -19 58 -54 163 -77 235
-46 140 -84 210 -147 266 -175 158 -521 332 -805 406 -95 24 -119 26 -293 26
-315 -2 -606 -41 -753 -104 -29 -12 -51 -23 -50 -25 2 -1 32 4 68 12 109 23
409 72 512 83 263 29 482 -2 708 -101 240 -106 392 -191 528 -296 123 -95 154
-140 202 -289 22 -69 40 -131 40 -138 0 -30 54 -195 83 -255 30 -63 58 -95
216 -245 34 -33 67 -67 71 -76 30 -55 70 -364 70 -543 l0 -89 -23 22 c-35 32
-49 113 -46 255 3 142 -2 171 -47 252 -24 44 -58 82 -125 140 -182 157 -199
186 -254 444 -38 178 -52 220 -102 310 -43 79 -70 112 -133 162 -50 40 -178
107 -243 128 -56 18 -181 81 -285 144 -51 31 -97 56 -103 56 -23 0 40 -87 95
-132 55 -44 199 -108 242 -108 27 0 147 -52 204 -88 64 -41 190 -159 190 -178
0 -8 -23 4 -52 27 -70 53 -196 112 -340 160 -64 21 -141 50 -170 65 -62 31
-204 129 -303 208 -83 66 -164 96 -263 96 -138 0 -530 -63 -629 -101 -16 -6
-66 -17 -113 -25 -47 -7 -97 -16 -112 -20 -24 -5 -29 -2 -38 21 -14 37 -12
100 4 138 30 73 176 174 321 222 101 34 248 66 338 75 124 12 572 3 727 -14z
m-1938 -36 c46 -13 64 -39 111 -160 58 -148 97 -182 217 -190 l74 -5 -38 -37
c-45 -43 -114 -73 -150 -64 -14 3 -48 27 -76 54 -48 44 -56 59 -125 230 -40
100 -68 182 -61 182 6 0 28 -5 48 -10z m-127 -35 c64 -67 135 -249 108 -276
-8 -8 -23 6 -52 45 -23 31 -59 81 -81 111 -53 72 -77 86 -156 93 -57 4 -64 7
-51 19 23 23 88 42 146 43 49 0 57 -3 86 -35z m-145 -86 c28 -6 65 -23 82 -37
51 -43 73 -118 45 -156 -18 -25 -46 -10 -72 40 -28 53 -75 82 -146 90 -46 5
-59 10 -59 24 0 15 21 31 60 43 24 8 36 8 90 -4z m-125 -130 c83 -15 144 -58
145 -102 0 -27 -21 -30 -103 -13 -80 17 -159 20 -191 7 -15 -6 -6 -10 36 -19
31 -6 72 -18 92 -26 32 -13 36 -19 36 -52 l0 -37 -77 9 c-96 11 -218 11 -301
2 -58 -7 -62 -6 -53 10 15 26 111 125 157 160 90 69 146 82 259 61z m1908 -88
c96 -25 124 -40 295 -155 188 -127 293 -179 507 -251 106 -35 206 -89 262
-139 63 -58 86 -142 88 -326 1 -98 5 -145 17 -170 17 -39 96 -111 223 -205 89
-65 175 -150 175 -171 0 -26 -339 155 -403 214 -69 65 -107 183 -108 335 0 45
-4 117 -8 160 -7 65 -13 83 -36 107 -42 43 -131 86 -282 136 -191 63 -225 79
-326 152 -175 125 -242 164 -334 191 -166 48 -344 50 -431 4 -39 -21 -47 -22
-61 -10 -37 33 -151 77 -198 77 -46 0 -21 18 40 29 270 46 456 53 580 22z
m-1485 -60 c20 -11 51 -33 67 -51 17 -17 58 -45 93 -60 34 -16 62 -33 62 -38
0 -15 -97 -35 -140 -29 -22 3 -65 24 -106 52 -65 44 -72 47 -117 41 -62 -7
-167 -59 -216 -106 -21 -21 -56 -70 -76 -109 -39 -73 -67 -92 -80 -51 -20 62
162 277 285 337 80 40 168 45 228 14z m442 -6 c0 -3 -18 -35 -41 -70 -42 -67
-63 -85 -98 -85 -32 0 -28 50 7 82 41 39 132 89 132 73z m370 -29 c41 -8 104
-25 140 -39 82 -31 100 -60 100 -164 0 -95 -15 -164 -55 -243 -17 -36 -53
-113 -80 -173 -41 -94 -46 -110 -34 -126 8 -10 49 -62 92 -115 90 -110 107
-152 107 -265 -1 -63 -5 -86 -30 -134 -24 -49 -28 -67 -23 -110 4 -47 2 -53
-19 -66 -47 -29 -345 -195 -399 -223 -31 -16 -97 -39 -147 -51 -51 -12 -92
-25 -92 -29 0 -19 95 -6 166 23 111 43 308 143 374 189 56 39 130 71 134 58
11 -34 13 -57 7 -65 -18 -28 -282 -171 -438 -239 -33 -14 -44 -34 -19 -34 39
0 341 147 414 202 30 22 55 38 57 36 2 -2 6 -14 10 -28 5 -23 -3 -30 -92 -86
-54 -34 -140 -84 -190 -110 -51 -27 -93 -52 -93 -56 0 -13 30 -9 58 6 15 8 62
31 105 52 43 20 111 58 150 85 77 53 85 52 86 -11 1 -22 -13 -33 -105 -83 -58
-31 -109 -57 -113 -57 -5 0 -14 -7 -21 -15 -10 -12 -10 -15 3 -15 24 0 97 28
171 66 37 20 72 32 76 27 5 -4 13 -59 19 -121 16 -154 20 -170 45 -178 11 -4
72 -7 134 -7 61 -1 112 -3 112 -5 0 -5 -88 -129 -122 -172 -15 -19 -51 -64
-79 -100 -82 -105 -194 -227 -323 -353 -140 -137 -203 -187 -277 -224 -45 -22
-50 -28 -31 -31 59 -9 146 49 305 205 109 107 163 165 240 255 77 91 304 373
322 402 21 31 26 32 56 8 l22 -19 -62 -103 c-59 -98 -190 -273 -286 -383 -25
-29 -113 -114 -195 -188 -122 -110 -145 -135 -127 -137 39 -7 497 476 581 613
10 17 41 61 69 98 59 80 76 74 52 -17 -22 -83 -36 -113 -107 -222 -113 -174
-253 -336 -326 -378 -39 -22 -105 -78 -87 -73 11 3 45 12 76 21 31 9 68 25 82
36 36 28 236 310 296 417 27 48 62 108 77 132 l28 45 8 -29 c13 -51 -19 -158
-122 -398 -86 -201 -97 -212 -246 -260 -108 -35 -335 -87 -469 -107 -115 -18
-526 -25 -606 -10 -79 14 -140 52 -173 110 -32 55 -27 154 13 258 39 98 52
113 90 106 42 -9 46 11 12 58 -31 43 -43 110 -21 123 6 3 10 12 10 19 0 11 -8
11 -40 2 -51 -13 -74 -1 -78 41 -2 24 3 36 25 52 25 21 34 22 125 15 146 -10
181 8 121 61 -34 30 -38 30 -64 4 -26 -26 -57 -20 -116 22 -27 19 -54 29 -77
29 -23 0 -38 6 -45 18 -9 17 -22 297 -14 318 2 7 21 8 56 2 151 -23 153 -23
181 5 14 14 26 38 26 52 0 25 -14 34 -25 15 -3 -5 -35 -10 -70 -10 -47 0 -76
6 -107 23 -38 19 -58 22 -163 22 -66 0 -126 4 -132 8 -7 5 -13 23 -13 41 0 36
98 198 279 460 134 196 181 274 181 305 1 71 39 194 77 249 49 70 57 92 122
317 60 207 72 234 124 292 31 33 49 44 90 52 109 23 153 24 247 7z m-1342 -91
c28 -11 44 -25 48 -41 11 -41 -2 -47 -80 -38 -39 5 -127 9 -195 9 -78 0 -126
4 -128 11 -5 16 40 54 84 70 51 19 212 13 271 -11z m2029 15 c65 -8 96 -18
150 -49 302 -171 463 -244 761 -348 81 -28 100 -92 111 -368 6 -142 12 -210
23 -236 15 -35 65 -68 277 -187 143 -79 182 -117 215 -201 22 -58 24 -157 4
-178 -14 -14 -19 -12 -45 16 -22 22 -36 55 -52 116 -29 110 -47 125 -272 235
-303 149 -268 123 -312 236 -78 205 -98 230 -222 265 -95 27 -161 60 -221 114
-65 57 -105 118 -144 225 -42 114 -86 195 -126 230 -71 62 -207 76 -363 39
-112 -27 -141 -22 -141 25 0 18 6 38 13 44 37 31 193 41 344 22z m-1597 -60
c23 -14 1 -42 -47 -60 -60 -22 -165 -94 -207 -141 -70 -76 -15 -57 98 35 103
85 145 102 222 90 56 -8 78 -24 70 -51 -5 -17 -20 -23 -79 -32 -77 -11 -182
-39 -175 -47 3 -2 29 0 58 6 72 14 90 13 90 -5 0 -30 -39 -53 -116 -70 -199
-43 -250 -56 -301 -80 -74 -33 -66 -49 24 -46 77 2 120 -13 178 -63 17 -14 37
-26 46 -26 8 0 57 33 108 74 139 111 250 163 291 136 13 -8 13 -13 0 -37 -24
-42 -138 -133 -231 -183 l-84 -45 -112 0 c-62 0 -113 -1 -113 -2 0 -1 15 -10
33 -20 22 -12 57 -17 112 -17 123 -1 135 4 347 146 48 32 90 58 93 58 14 0
-10 -70 -55 -160 -26 -52 -59 -133 -73 -180 -15 -48 -45 -114 -68 -150 -23
-36 -57 -87 -74 -115 -329 -507 -330 -510 -323 -599 6 -74 18 -86 87 -87 31 0
74 -3 96 -7 l39 -7 -55 -35 c-107 -67 -171 -112 -166 -117 3 -3 34 11 69 30
142 79 179 97 188 92 6 -4 10 -23 10 -45 0 -33 -4 -39 -27 -45 -15 -3 -55 -26
-88 -49 -33 -24 -79 -53 -102 -65 -24 -12 -43 -26 -43 -31 0 -25 50 -5 139 55
54 36 103 65 109 65 7 0 12 -13 12 -29 0 -25 -8 -34 -55 -61 -30 -17 -74 -47
-97 -65 -24 -19 -54 -43 -68 -54 -76 -59 72 12 170 82 13 9 30 17 36 17 18 0
25 -53 9 -69 -15 -15 -125 -94 -192 -138 -24 -15 -43 -33 -43 -40 0 -16 26 -6
70 27 48 36 168 110 178 110 5 0 16 -8 25 -18 16 -17 15 -19 -16 -34 -19 -9
-74 -46 -123 -83 -49 -37 -95 -70 -101 -72 -7 -3 -13 -9 -13 -13 0 -5 20 -2
45 7 25 8 45 19 45 23 0 15 172 112 181 103 5 -5 6 -24 3 -41 -5 -27 -18 -39
-68 -68 -77 -45 -198 -135 -192 -142 3 -2 27 9 53 25 26 17 78 47 114 67 l67
37 33 -31 c19 -17 44 -39 57 -50 35 -30 29 -82 -20 -181 l-43 -84 0 -135 c0
-152 12 -189 79 -248 67 -59 115 -72 279 -79 l148 -6 -36 -37 c-25 -25 -49
-40 -73 -43 -21 -3 -84 -18 -142 -32 -195 -48 -463 -95 -622 -110 -39 -4 -72
-12 -79 -21 -29 -35 253 -3 625 71 98 19 182 33 185 29 12 -12 -182 -184 -293
-258 -126 -85 -237 -143 -341 -178 -66 -22 -83 -23 -315 -22 -500 3 -617 32
-687 167 -23 45 -27 64 -27 147 l-1 95 53 68 c57 75 62 98 34 161 -13 28 -26
41 -52 50 -25 8 -37 19 -43 42 -12 43 8 110 39 131 24 15 28 15 70 -5 54 -27
129 -30 138 -6 10 26 -3 34 -54 34 -43 0 -54 5 -84 35 -24 24 -45 35 -64 35
-48 0 -53 15 -36 112 10 60 12 98 5 127 l-9 42 37 -7 c20 -4 54 -13 76 -21 94
-34 108 -35 160 -16 38 14 51 24 53 41 4 29 -69 185 -75 160 -2 -9 2 -29 11
-45 23 -45 30 -98 14 -110 -28 -22 -82 -24 -118 -3 -113 63 -118 64 -244 61
-65 -1 -126 1 -136 4 -26 8 -44 58 -35 102 7 38 90 172 144 233 17 19 59 82
93 140 59 101 116 177 182 248 58 61 66 86 66 206 l0 109 50 108 c61 132 97
261 111 399 5 58 18 125 28 150 11 25 24 72 31 105 16 77 41 127 77 150 15 11
64 28 107 40 81 21 112 43 89 66 -9 9 -28 8 -78 -5 -133 -33 -212 -94 -237
-181 -16 -54 -27 -67 -57 -63 -25 3 -26 5 -24 71 3 80 29 132 97 195 63 59
120 84 197 90 90 6 133 -9 161 -59 43 -77 75 -64 129 50 54 114 124 187 208
217 43 15 130 18 151 4z m-497 -74 c9 -4 17 -18 17 -31 0 -21 -4 -22 -122 -28
-143 -7 -179 -17 -245 -66 -84 -64 -140 -200 -130 -317 2 -35 1 -64 -3 -64 -5
0 -25 16 -45 34 l-37 35 4 119 c3 112 5 121 33 164 17 25 64 73 105 106 l75
59 165 -1 c91 -1 173 -5 183 -10z m2137 3 c82 -19 138 -95 194 -265 30 -92 84
-188 124 -221 32 -27 209 -126 304 -171 68 -32 108 -66 134 -114 18 -34 79
-228 89 -283 4 -22 11 -46 17 -52 16 -20 -21 -29 -51 -12 -41 22 -63 80 -70
183 -5 56 -13 101 -23 114 -14 21 -15 14 -21 -91 -5 -102 -2 -136 18 -204 7
-20 4 -23 -23 -23 -27 0 -32 5 -42 38 -6 20 -13 96 -17 167 -6 132 -14 161
-53 203 -22 23 -50 30 -50 10 0 -6 12 -36 28 -67 24 -49 27 -70 31 -173 3
-104 1 -119 -14 -124 -10 -4 -29 -3 -44 2 -25 9 -28 20 -73 219 l-46 210 -49
44 c-27 25 -87 63 -140 87 -50 23 -96 52 -102 63 -6 11 -27 82 -46 157 -49
197 -59 205 -255 215 -124 6 -190 20 -190 40 0 10 87 38 148 49 69 11 170 11
222 -1z m-1235 -31 c-4 -18 -13 -47 -20 -64 -12 -30 -13 -30 -78 -26 -79 5
-91 0 -220 -99 -148 -112 -194 -139 -243 -139 -46 0 -94 30 -94 60 0 14 18 22
93 40 162 40 194 56 282 140 107 103 137 118 233 119 l54 1 -7 -32z m860 -94
c35 -16 88 -30 139 -35 44 -5 96 -14 113 -20 45 -14 73 -53 73 -101 0 -35 -2
-38 -19 -29 -10 6 -40 15 -66 21 -41 9 -57 8 -112 -11 -55 -18 -71 -19 -108
-10 -54 13 -55 13 -55 1 0 -6 15 -19 33 -31 26 -16 46 -20 107 -18 139 5 220
0 225 -13 2 -7 9 -32 15 -55 13 -52 37 -66 187 -112 176 -54 229 -115 239
-272 3 -46 1 -113 -3 -149 -7 -60 -10 -65 -33 -65 -24 0 -25 2 -46 148 -19
132 -24 151 -48 176 -35 36 -86 51 -177 51 -54 0 -89 7 -129 23 -44 19 -200
128 -302 212 -34 28 -73 44 -66 26 5 -14 289 -241 333 -266 60 -35 170 -65
234 -65 48 0 61 -4 80 -24 61 -64 52 -275 -10 -251 -9 3 -30 37 -47 75 -35 80
-64 103 -152 121 -122 25 -147 41 -295 184 -158 153 -195 182 -195 156 0 -5
22 -27 49 -48 27 -22 78 -79 115 -127 59 -79 71 -106 47 -106 -5 0 -57 48
-117 107 -130 129 -156 113 -33 -22 30 -34 47 -89 29 -100 -22 -14 -56 5 -77
42 -12 21 -44 64 -72 95 -27 32 -52 66 -56 78 -4 12 7 48 29 97 39 89 66 169
91 272 10 39 19 71 20 71 1 0 28 -12 60 -26z m137 -675 c29 -6 76 -19 103 -28
28 -10 80 -24 116 -31 37 -6 81 -20 98 -31 32 -19 70 -83 57 -96 -15 -15 -142
-16 -157 -1 -46 45 -146 78 -133 44 3 -8 17 -17 31 -21 14 -3 49 -30 78 -59
60 -60 71 -92 62 -184 -9 -101 -37 -132 -118 -132 -31 0 -47 7 -77 34 l-37 34
43 17 c59 24 92 66 92 119 0 33 -6 48 -27 68 -38 35 -66 48 -102 48 -29 0 -71
-29 -71 -49 0 -19 33 -42 49 -35 9 4 32 8 51 8 34 1 35 0 38 -41 3 -39 0 -44
-37 -68 -23 -16 -66 -31 -105 -38 -62 -10 -67 -10 -93 11 -16 12 -38 27 -50
34 -31 15 -30 70 2 150 18 44 25 80 25 129 0 64 1 68 35 98 39 34 50 36 127
20z m508 -261 c107 -32 215 -110 251 -180 78 -153 -20 -365 -153 -330 -48 12
-43 40 11 71 58 34 81 67 84 118 3 55 -14 56 -29 2 -17 -57 -55 -93 -126 -119
-88 -32 -101 -21 -45 39 58 62 77 100 77 156 0 72 -27 56 -50 -30 -22 -78
-121 -164 -145 -125 -4 6 11 32 33 58 53 64 62 83 62 136 0 67 -23 60 -43 -13
-19 -68 -79 -141 -115 -141 -25 0 -30 25 -7 33 25 10 63 80 69 130 7 55 -7 62
-24 12 -15 -46 -57 -96 -75 -89 -12 5 -11 10 3 32 13 20 17 49 17 124 0 59 5
102 12 109 26 26 117 30 193 7z m783 -7 c73 -25 185 -87 209 -115 45 -53 69
-122 73 -207 4 -93 5 -93 91 -134 94 -46 213 -192 214 -262 0 -40 -12 -41 -59
-5 -34 27 -165 114 -294 196 -32 20 -60 43 -63 50 -3 7 -1 44 4 82 11 79 -4
155 -40 208 -41 60 -123 131 -168 146 -33 11 -46 21 -48 38 -4 27 8 28 81 3z
m-253 -121 c51 -28 126 -217 110 -280 l-6 -25 -9 25 c-4 14 -45 76 -91 138
-46 61 -84 116 -84 122 0 11 30 29 48 30 7 0 22 -4 32 -10z m173 -77 c54 -117
87 -204 87 -229 0 -19 -5 -22 -35 -21 -33 1 -36 4 -46 41 -5 23 -21 67 -35 98
-27 62 -64 166 -64 180 0 4 13 8 28 8 26 0 32 -7 65 -77z m101 37 c44 -39 75
-106 82 -179 8 -70 -4 -82 -45 -49 -20 16 -35 43 -50 93 -11 39 -27 91 -35
118 -18 58 -5 63 48 17z m-331 -112 c88 -107 111 -155 115 -245 5 -84 -14
-149 -59 -211 -29 -39 -34 -42 -80 -42 -37 0 -51 4 -58 19 -12 21 -5 31 22 31
45 0 107 96 107 168 0 33 -27 27 -35 -7 -18 -83 -112 -151 -192 -138 -59 10
-59 21 4 64 82 56 112 103 113 175 0 98 -23 122 -35 36 -9 -62 -24 -94 -66
-143 -38 -42 -92 -57 -117 -30 -12 12 -14 19 -5 22 31 11 67 50 85 92 15 34
22 75 26 157 l4 112 32 10 c59 19 68 14 139 -70z m-1041 15 c47 -51 49 -61 42
-245 -7 -165 -6 -175 15 -216 l21 -42 -49 0 c-38 0 -53 4 -59 18 -12 23 -28
109 -52 280 -20 148 -18 175 17 214 22 25 35 23 65 -9z m176 -100 c2 -23 -6
-89 -17 -148 -12 -58 -21 -140 -21 -181 0 -58 -3 -74 -15 -74 -9 0 -21 21 -31
57 -18 63 -15 148 11 257 8 33 17 78 20 99 5 32 10 38 28 35 18 -2 23 -11 25
-45z m70 -202 c-3 -169 -5 -190 -20 -194 -20 -6 -29 5 -48 51 -16 42 -12 81
36 310 2 12 11 22 20 22 13 0 15 -24 12 -189z m108 104 c4 -8 -3 -66 -15 -128
-12 -61 -21 -125 -21 -140 0 -21 -4 -28 -17 -25 -58 11 -30 308 28 308 11 0
22 -7 25 -15z m1060 -46 c87 -42 191 -182 209 -280 l7 -37 -134 -6 c-73 -3
-146 -7 -163 -8 -29 -3 -30 -1 -36 48 -11 84 -42 123 -55 67 -24 -107 -35
-123 -83 -123 -26 0 -29 39 -6 74 23 34 65 175 65 216 0 44 9 57 40 63 60 11
116 6 156 -14z m-852 -45 c12 -31 6 -80 -15 -113 -11 -18 -18 -36 -15 -38 3
-3 26 2 52 11 55 19 87 20 115 6 23 -13 24 -23 2 -77 -17 -40 -20 -43 -50 -37
-41 8 -95 -10 -158 -53 -56 -37 -90 -42 -105 -14 -5 11 -10 68 -10 126 0 125
7 145 55 145 26 0 38 7 55 30 23 33 64 41 74 14z m1172 -132 c69 -45 131 -110
140 -148 8 -32 -12 -285 -27 -338 -11 -41 -39 -53 -82 -37 -25 10 -26 13 -20
58 3 26 12 65 20 87 18 54 18 56 -27 116 -35 46 -40 61 -40 105 0 28 -11 84
-24 123 -29 85 -24 88 60 34z m-878 -95 c48 -49 88 -176 62 -192 -13 -8 -105
45 -147 85 -26 24 -33 39 -33 68 0 41 7 56 30 65 33 12 58 5 88 -26z m767 -96
c24 -5 37 -18 62 -66 32 -58 42 -108 24 -119 -4 -3 -23 6 -42 20 -57 43 -128
75 -213 96 -121 30 -138 51 -53 66 59 11 178 13 222 3z m-560 -32 c10 -30 43
-39 184 -49 178 -12 321 -56 395 -120 40 -36 46 -64 17 -80 -35 -18 -75 -11
-157 28 -94 46 -147 59 -273 66 -103 7 -186 37 -215 78 -16 23 -22 79 -9 91
15 15 52 6 58 -14z m-392 -28 c24 -10 107 -88 107 -102 0 -4 -23 -32 -50 -62
-57 -62 -90 -103 -90 -111 0 -20 32 4 101 78 78 82 80 84 109 73 17 -6 30 -14
30 -17 0 -9 -251 -253 -292 -284 -36 -27 -50 -56 -28 -56 6 0 51 37 101 83 49
45 132 117 184 160 l94 78 40 -12 c23 -7 41 -15 41 -19 0 -26 -342 -322 -484
-420 -89 -62 -106 -75 -106 -85 0 -17 57 9 95 44 22 20 76 63 120 96 44 32
118 91 165 130 84 70 259 195 275 195 13 0 125 -71 125 -79 0 -4 -70 -61 -157
-127 -380 -289 -537 -433 -795 -730 -113 -130 -448 -544 -483 -597 -10 -15
-19 -26 -21 -24 -2 2 -15 57 -28 123 -13 65 -52 247 -85 404 -34 157 -61 288
-61 292 0 9 54 25 110 33 151 22 368 96 456 156 62 42 113 105 150 183 39 86
131 327 170 449 23 71 36 96 66 123 40 36 89 45 141 25z m697 -252 c59 -39 99
-49 200 -49 54 0 91 -5 102 -14 16 -12 15 -15 -10 -39 -41 -39 -134 -76 -210
-83 -66 -6 -67 -6 -99 28 -44 47 -70 104 -77 171 l-6 59 27 -22 c16 -11 48
-34 73 -51z m640 -93 c0 -30 -85 -110 -148 -138 -99 -45 -280 -88 -371 -88
-79 0 -101 9 -101 41 0 19 71 39 141 39 56 0 271 72 354 120 71 40 125 51 125
26z m40 -150 c0 -19 -14 -28 -102 -63 -57 -22 -125 -48 -153 -57 -53 -16 -242
-51 -337 -60 -56 -6 -58 -5 -58 17 0 22 5 25 65 30 95 9 292 61 425 111 165
63 160 62 160 22z m-40 -127 c0 -58 -123 -113 -357 -161 -98 -20 -112 -20
-152 -7 -86 28 -79 79 11 79 66 0 270 42 383 79 111 36 115 36 115 10z m394
-10 c57 -16 93 -47 121 -104 30 -61 31 -81 11 -220 -9 -60 -16 -133 -16 -161
l0 -52 -57 -6 c-32 -4 -75 -9 -95 -12 -24 -4 -38 -2 -38 5 0 25 43 122 69 155
70 88 64 144 -24 224 -47 43 -63 51 -118 61 -35 6 -73 11 -83 11 -21 0 -74 48
-74 67 0 14 135 41 210 42 30 0 73 -4 94 -10z m-267 -187 c24 -29 43 -59 43
-67 0 -8 -18 -61 -41 -117 -45 -113 -57 -184 -36 -209 10 -14 51 -19 237 -29
124 -7 232 -16 241 -21 16 -8 40 -52 54 -98 7 -22 5 -23 -16 -17 -80 25 -126
36 -137 31 -23 -8 -4 -22 39 -29 121 -19 171 -97 119 -182 l-21 -33 -58 57
c-70 69 -195 155 -259 178 -26 9 -86 32 -133 50 -48 19 -93 34 -100 34 -8 1
-25 10 -38 21 -34 28 -32 83 7 207 35 107 47 233 28 297 l-8 30 18 -25 c10
-14 38 -49 61 -78z m-124 3 c7 -48 -15 -187 -39 -243 -8 -19 -14 -67 -14 -106
0 -66 2 -73 27 -91 15 -11 45 -34 67 -50 49 -37 87 -60 181 -110 146 -79 205
-116 259 -166 72 -66 76 -83 35 -148 -19 -33 -33 -70 -36 -99 -7 -74 -8 -75
-49 -47 -20 14 -41 25 -45 25 -18 0 -20 51 -3 103 16 53 14 127 -5 127 -9 0
-41 -150 -41 -192 0 -25 -3 -28 -36 -28 l-36 0 7 133 7 132 -38 44 c-31 36
-66 57 -181 112 -82 39 -154 80 -168 96 -53 60 -55 130 -8 278 38 119 53 182
53 220 0 22 6 38 18 44 31 18 39 12 45 -34z m310 -12 c81 -56 86 -112 21 -210
-25 -37 -53 -85 -61 -105 -18 -44 -45 -50 -87 -17 -27 21 -35 66 -16 85 16 16
60 155 60 189 0 17 -7 40 -15 51 -22 29 -18 34 22 34 24 0 51 -10 76 -27z
m-459 -40 c13 -84 7 -147 -24 -218 -32 -77 -38 -137 -16 -188 21 -51 106 -118
237 -187 179 -94 205 -135 174 -272 -9 -41 -15 -81 -13 -89 2 -10 -8 -15 -34
-17 l-38 -3 0 43 c-1 57 -28 112 -87 173 -89 92 -209 193 -250 211 -31 13
-103 112 -104 143 -4 59 4 99 31 162 19 42 33 98 40 160 15 121 14 119 48 119
26 0 30 -4 36 -37z m-144 -90 c-5 -32 -25 -82 -44 -113 -55 -91 -69 -156 -44
-203 6 -12 35 -51 63 -87 84 -106 87 -114 83 -254 -3 -117 -4 -124 -43 -209
-81 -180 -165 -237 -329 -223 -44 4 -83 12 -87 18 -4 5 -23 20 -44 32 -29 17
-44 37 -70 96 -24 54 -48 88 -85 123 -59 54 -77 57 -182 30 -49 -13 -71 -14
-79 -6 -19 19 -29 88 -19 144 21 128 69 179 154 162 46 -9 118 -90 230 -256
118 -176 152 -207 225 -207 82 0 152 45 194 125 18 34 21 58 22 155 l0 115
-39 70 c-74 132 -78 142 -78 208 0 49 10 87 41 169 22 58 46 130 54 159 12 50
15 54 48 59 31 5 34 3 37 -22 2 -15 -2 -53 -8 -85z m-154 44 c-3 -35 -22 -112
-41 -172 -49 -156 -48 -175 25 -320 53 -105 61 -128 62 -182 1 -42 -4 -69 -15
-86 -23 -35 -82 -70 -107 -62 -35 11 -40 36 -29 131 17 136 7 194 -46 279 -68
109 -85 152 -85 218 0 51 4 64 36 105 19 26 58 71 86 100 42 44 55 52 85 52
l36 0 -7 -63z m-203 9 c-17 -18 -43 -60 -58 -92 -39 -82 -32 -166 21 -262 71
-128 85 -158 91 -195 6 -40 -4 -127 -16 -127 -4 0 -17 31 -29 68 -26 80 -77
153 -167 239 -65 61 -65 61 -65 117 0 66 32 171 63 204 32 34 81 62 134 76 27
7 50 11 52 9 2 -1 -10 -18 -26 -37z m-204 -405 c20 -11 56 -44 79 -74 40 -51
92 -160 92 -191 0 -8 21 -55 46 -105 49 -100 74 -121 141 -121 l38 -1 -35 -29
c-27 -24 -44 -30 -81 -30 -59 0 -66 8 -214 233 l-110 168 -79 39 c-43 22 -86
40 -95 40 -24 1 52 65 91 78 51 16 85 14 127 -7z m765 -235 c129 -99 196 -191
196 -268 0 -24 -4 -28 -29 -28 -23 0 -34 8 -52 38 -28 45 -143 206 -176 245
-21 27 -31 67 -16 67 4 0 38 -24 77 -54z m15 -191 c11 -22 21 -53 23 -70 3
-29 2 -30 -40 -29 -30 0 -50 8 -68 25 -25 23 -26 27 -19 98 3 41 9 79 12 85 8
12 68 -58 92 -109z m-872 -46 c32 -12 73 -47 73 -63 0 -6 -21 -18 -47 -26 -55
-17 -88 -59 -65 -82 11 -11 18 -8 36 15 38 47 96 29 96 -30 0 -35 -173 -183
-214 -183 -21 0 -50 131 -51 231 0 73 3 90 20 109 35 39 95 51 152 29z m863
-124 c76 -23 98 -25 266 -24 174 1 186 0 231 -22 41 -21 53 -34 83 -94 33 -65
35 -77 38 -180 3 -92 1 -119 -17 -165 -29 -78 -71 -124 -149 -162 -61 -30 -74
-33 -162 -33 -82 0 -102 3 -145 26 -117 60 -139 198 -41 258 37 23 148 51 205
51 38 0 71 -24 71 -51 0 -18 -12 -23 -65 -31 -11 -2 -20 -10 -20 -18 0 -37
110 -53 165 -25 64 33 15 111 -88 141 -53 16 -65 16 -167 0 -162 -24 -168 -23
-216 25 -40 40 -80 114 -95 173 -4 16 -3 27 2 25 5 -2 43 -22 84 -43 l75 -40
170 -7 c171 -6 221 -16 279 -54 l26 -17 0 34 c0 39 -16 57 -70 79 -26 10 -74
13 -190 11 -176 -3 -191 0 -293 68 -55 37 -67 50 -67 73 0 15 1 27 3 27 2 0
41 -11 87 -25z m-662 -137 c20 -25 -14 -88 -80 -150 -92 -87 -127 -97 -179
-50 l-32 28 51 49 c98 91 162 135 197 135 18 0 37 -6 43 -12z"/>
<path d="M5086 7434 c-27 -26 -4 -54 45 -54 51 0 149 -59 149 -90 0 -33 -27
-34 -93 -6 -71 30 -112 33 -121 10 -14 -36 -7 -40 52 -36 52 4 61 1 90 -23 20
-17 32 -36 32 -51 0 -27 -4 -30 -75 -39 -40 -6 -46 -9 -31 -17 23 -13 80 -2
138 27 44 22 68 29 96 26 18 -2 15 -41 -4 -41 -23 0 -167 -59 -184 -76 -22
-22 0 -18 92 17 63 23 108 32 183 37 97 7 100 8 103 32 3 25 -9 44 -78 131
-122 152 -151 169 -284 169 -73 0 -98 -4 -110 -16z m229 -35 c48 -23 135 -119
135 -150 0 -37 -21 -28 -100 45 -77 71 -119 95 -193 111 -17 3 -25 10 -21 17
10 16 128 1 179 -23z"/>
<path d="M5515 5525 c-106 -76 -240 -147 -316 -168 -30 -9 -88 -18 -129 -22
-90 -7 -112 -13 -104 -27 12 -20 181 0 280 33 97 32 224 109 307 186 40 37 64
64 55 63 -2 -1 -43 -30 -93 -65z"/>
<path d="M6660 7953 c0 -33 34 -109 81 -178 48 -72 92 -106 158 -120 18 -4 49
-18 68 -31 66 -44 122 -24 92 33 -19 35 -73 59 -154 67 -78 8 -128 33 -150 76
-34 66 -14 80 57 41 29 -16 85 -34 123 -41 86 -16 162 -44 194 -73 44 -41 58
-92 66 -242 7 -149 25 -214 66 -236 16 -8 19 -6 19 14 0 14 -6 43 -14 65 -11
30 -13 66 -9 129 10 160 -36 267 -137 318 -26 13 -84 33 -129 45 -109 28 -186
57 -203 77 -17 22 -98 73 -115 73 -7 0 -13 -8 -13 -17z"/>
<path d="M3838 6713 c-45 -5 -51 -20 -31 -79 21 -61 14 -164 -16 -221 l-21
-43 34 0 c19 0 37 4 40 9 4 5 9 57 13 114 5 92 9 109 30 131 36 39 127 37 228
-5 65 -27 79 -38 111 -84 32 -47 86 -86 99 -73 2 2 -20 40 -49 84 -50 75 -58
82 -103 94 -26 7 -75 27 -108 43 -61 30 -139 41 -227 30z"/>
<path d="M3950 6519 c0 -5 25 -21 55 -35 61 -28 104 -72 83 -86 -23 -14 -44
-9 -68 17 -13 14 -34 25 -47 25 -20 0 -23 -5 -23 -36 l0 -37 59 7 c47 5 61 4
72 -10 19 -23 -6 -39 -72 -48 -70 -9 -52 -22 24 -18 43 3 75 11 105 28 69 41
55 73 -65 152 -75 49 -123 65 -123 41z"/>
<path d="M3991 6215 c6 -26 32 -39 62 -31 33 8 36 36 5 36 -13 0 -34 3 -47 7
-18 5 -22 2 -20 -12z"/>
<path d="M4745 4799 c-166 -41 -436 -83 -610 -95 -126 -9 -141 -23 -25 -24
200 0 610 68 724 121 76 34 62 34 -89 -2z"/>
<path d="M4665 4665 c-24 -10 -599 -76 -779 -90 -110 -8 -201 -17 -203 -19
-23 -22 678 2 804 28 60 13 203 71 203 82 0 5 -11 4 -25 -1z"/>
<path d="M7427 6283 c-28 -7 -15 -27 30 -42 66 -23 98 10 37 38 -26 11 -36 12
-67 4z"/>
<path d="M6707 5434 c-15 -18 -101 -90 -192 -161 -90 -70 -165 -134 -165 -141
0 -8 26 8 58 35 31 27 111 92 177 145 127 101 159 131 154 145 -2 5 -16 -5
-32 -23z"/>
<path d="M995 8194 c-71 -36 -87 -64 -181 -312 -48 -128 -55 -155 -43 -163 25
-16 36 -10 47 29 21 66 16 66 172 6 80 -30 199 -75 265 -100 66 -25 124 -49
129 -54 5 -5 2 -28 -9 -56 -15 -39 -15 -48 -4 -55 34 -22 29 -31 125 221 78
207 87 270 44 333 -33 49 -86 77 -145 77 -64 0 -112 -25 -149 -78 l-31 -44 -6
66 c-4 51 -11 72 -30 92 -47 52 -126 68 -184 38z m89 -118 c43 -18 72 -50 80
-87 6 -30 -23 -132 -43 -152 -9 -9 -203 55 -225 74 -14 12 42 136 72 159 29
23 70 25 116 6z m333 -87 c53 -26 77 -67 70 -120 -7 -52 -49 -159 -63 -159
-11 0 -122 42 -206 77 -21 9 -38 23 -38 31 0 34 71 162 98 176 38 21 89 19
139 -5z"/>
<path d="M11015 7842 c-86 -28 -122 -89 -155 -257 -24 -121 -45 -167 -89 -185
-99 -41 -184 84 -155 228 5 24 13 32 35 37 34 8 42 18 34 44 -5 17 -9 17 -91
-8 -72 -22 -84 -29 -82 -46 2 -11 12 -21 23 -23 19 -3 21 -8 17 -66 -7 -100
27 -177 99 -229 90 -65 234 -33 283 62 16 30 38 110 62 225 20 99 43 126 107
126 71 0 107 -53 107 -160 0 -58 0 -59 -35 -70 -23 -8 -35 -18 -35 -30 0 -31
13 -31 96 -2 71 24 79 29 76 50 -3 18 -8 23 -23 19 -17 -5 -19 1 -19 51 0 150
-134 273 -255 234z"/>
<path d="M576 7043 c-4 -38 -9 -88 -12 -113 l-6 -45 54 -37 c29 -20 130 -84
223 -143 94 -58 176 -112 184 -120 11 -11 -29 -27 -253 -99 -232 -76 -266 -90
-271 -109 -9 -44 -23 -192 -19 -199 3 -4 16 -8 28 -8 20 0 24 6 29 51 4 29 8
54 11 56 4 4 430 -46 539 -63 l39 -6 -4 -57 c-3 -51 -1 -56 19 -59 25 -4 27 4
43 143 6 50 13 105 17 123 5 32 4 33 -23 30 -27 -3 -29 -7 -34 -53 -5 -46 -7
-50 -30 -48 -82 9 -444 54 -447 56 -1 2 121 43 272 93 151 49 275 91 275 95 0
3 -115 79 -255 169 -141 89 -254 165 -251 167 4 4 390 -40 462 -53 31 -6 31
-7 30 -62 -1 -50 1 -57 20 -60 19 -3 21 6 38 150 9 84 20 161 22 171 4 13 -1
17 -24 17 -28 0 -30 -3 -35 -51 -4 -29 -8 -53 -9 -54 -2 -2 -124 12 -273 31
-148 18 -278 34 -288 34 -17 0 -18 6 -12 60 l7 60 -30 0 c-29 0 -29 -1 -36
-67z"/>
<path d="M11391 6921 c-10 -7 -12 -21 -7 -59 l7 -51 -33 -5 c-27 -5 -281 -40
-515 -72 l-43 -6 0 33 c0 46 -10 79 -24 79 -34 -1 -35 -14 -12 -175 19 -135
25 -160 40 -163 28 -6 35 9 27 61 -5 26 -4 50 0 53 5 3 122 20 261 40 139 19
267 37 284 40 l31 6 7 -56 c7 -49 10 -56 30 -56 12 0 25 2 27 5 3 2 -5 78 -18
167 -12 90 -22 164 -23 166 0 5 -26 1 -39 -7z"/>
<path d="M11380 6095 c0 -22 4 -25 40 -25 l40 0 0 -102 c0 -57 -4 -109 -8
-116 -7 -10 -57 -11 -258 -2 -137 5 -266 10 -286 10 l-38 0 0 65 c0 62 -1 65
-24 65 -21 0 -24 -5 -29 -67 -4 -38 -7 -121 -7 -185 l0 -118 25 0 c24 0 25 2
25 66 l0 66 138 -6 c75 -3 208 -9 295 -12 l157 -6 0 -47 c0 -25 -3 -77 -7
-114 l-6 -68 -39 6 c-37 7 -38 6 -38 -24 l0 -31 85 0 c84 0 85 0 85 25 0 16
-6 25 -16 25 -15 0 -16 19 -10 183 11 311 16 377 32 377 8 0 14 10 14 24 0 21
-6 24 -52 30 -101 12 -118 9 -118 -19z"/>
<path d="M503 5562 c-9 -6 -6 -41 11 -147 22 -139 22 -140 50 -143 l28 -4 -7
60 -7 59 169 26 c254 41 258 41 310 27 127 -36 182 -196 101 -294 -35 -42 -86
-71 -143 -80 -22 -3 -112 -17 -199 -31 -87 -15 -164 -24 -171 -21 -7 2 -15 28
-19 56 -7 50 -8 52 -34 45 -15 -4 -28 -7 -28 -8 -1 -1 10 -75 24 -164 l26
-163 29 0 c28 0 29 1 22 43 -3 23 -9 49 -11 58 -5 17 -22 14 335 70 102 16
131 25 167 50 141 96 145 338 7 459 -71 63 -139 72 -312 44 -53 -8 -136 -22
-185 -30 -49 -7 -93 -14 -97 -14 -4 0 -10 25 -14 55 -6 55 -20 67 -52 47z"/>
<path d="M10751 5118 c-12 -46 -25 -91 -27 -100 -4 -13 0 -18 15 -18 12 0 24
0 28 -1 4 0 12 16 18 37 l10 36 61 -46 c34 -25 66 -51 72 -59 8 -9 2 -47 -22
-142 -36 -146 -27 -137 -151 -150 l-65 -7 6 30 c5 25 2 31 -16 37 -12 4 -23 5
-24 3 -9 -10 -56 -231 -51 -238 13 -21 43 -10 48 19 7 32 -22 26 542 111 184
27 185 27 185 49 0 19 -13 30 -265 221 -82 62 -152 116 -155 119 -3 3 -38 31
-78 61 -65 49 -72 58 -70 85 2 24 -1 31 -18 33 -19 3 -24 -6 -43 -80z m365
-290 c58 -46 101 -84 97 -85 -21 -7 -269 -40 -274 -37 -4 2 5 51 19 109 19 76
30 104 40 100 7 -2 60 -42 118 -87z"/>
<path d="M11532 4814 c-28 -20 -31 -83 -4 -107 45 -40 122 -6 122 53 0 59 -67
90 -118 54z"/>
<path d="M11462 4547 c-44 -47 -13 -117 53 -117 36 0 75 36 75 70 0 10 -9 29
-21 44 -27 34 -77 36 -107 3z"/>
<path d="M1382 4442 c-10 -7 -8 -19 8 -56 11 -26 20 -50 20 -52 0 -3 -17 -12
-37 -20 -37 -16 -306 -136 -393 -176 -25 -11 -60 -27 -78 -35 l-33 -14 -21 51
c-21 50 -31 57 -57 41 -10 -7 1 -40 54 -160 37 -83 73 -151 79 -151 33 1 38
17 16 59 -12 24 -20 47 -18 52 4 12 189 98 219 102 19 2 31 -20 100 -173 43
-96 78 -181 79 -188 0 -7 -26 -25 -57 -38 -32 -14 -81 -37 -109 -50 -28 -13
-56 -24 -61 -24 -6 0 -20 23 -32 50 -19 45 -24 49 -41 40 -11 -6 -20 -14 -20
-19 0 -5 29 -73 64 -152 52 -118 67 -143 83 -141 27 6 28 10 14 45 -28 66 -23
75 59 112 190 85 442 195 450 195 4 0 16 -20 27 -45 12 -29 24 -45 36 -45 38
0 31 24 -84 277 -15 33 -23 40 -39 36 -23 -6 -25 -28 -5 -63 30 -53 32 -52
-129 -121 -95 -41 -106 -44 -106 -30 0 5 -36 89 -80 187 -44 97 -78 179 -76
182 5 5 181 86 223 103 20 8 25 3 44 -41 23 -54 27 -57 51 -37 15 11 9 28 -50
160 -36 81 -71 147 -77 147 -5 0 -16 -4 -23 -8z"/>
<path d="M4569 4175 c-25 -14 -47 -61 -34 -73 3 -4 22 11 40 33 48 56 46 68
-6 40z"/>
<path d="M10404 4043 c-130 -275 -126 -266 -108 -280 10 -7 20 -13 23 -13 3 0
17 25 30 56 28 65 25 65 158 3 48 -23 156 -73 238 -111 83 -38 153 -73 158
-77 10 -10 -79 -201 -93 -201 -6 0 -24 7 -40 15 -27 14 -30 14 -40 -6 -14 -26
-14 -26 73 -65 70 -31 72 -31 80 -11 4 11 3 25 -3 31 -6 9 8 49 46 132 31 65
80 173 111 239 62 135 69 146 87 139 8 -3 16 4 19 17 4 13 5 23 4 24 -1 0 -32
15 -70 33 -79 38 -83 38 -90 11 -4 -16 2 -24 29 -36 19 -9 34 -20 34 -24 0
-22 -94 -200 -104 -195 -6 2 -103 48 -216 101 -113 54 -226 107 -252 118 -27
12 -48 26 -47 31 0 6 11 34 24 61 21 45 22 51 7 57 -28 11 -30 10 -58 -49z"/>
<path d="M10080 3022 c-38 -38 -40 -79 -5 -116 34 -37 95 -37 124 0 44 56 16
130 -53 141 -30 5 -40 1 -66 -25z"/>
<path d="M1817 2995 c-57 -58 -22 -147 58 -147 46 0 74 25 81 73 8 46 -26 87
-76 95 -29 5 -40 1 -63 -21z"/>
<path d="M9416 2650 c-100 -96 -103 -100 -85 -116 21 -19 18 -20 88 45 13 12
26 2 96 -74 44 -49 110 -120 147 -159 36 -39 63 -72 58 -74 -7 -3 -527 52
-600 63 -32 5 -41 0 -102 -56 -71 -63 -78 -78 -53 -99 13 -11 22 -8 53 23 49
47 76 41 139 -27 26 -28 103 -111 172 -184 70 -74 130 -143 135 -153 8 -17 2
-26 -30 -54 -37 -32 -38 -35 -22 -51 19 -20 25 -16 159 110 66 63 75 74 64 89
-12 17 -35 23 -35 10 0 -5 -16 -21 -35 -36 -29 -23 -37 -26 -48 -15 -24 27
-172 184 -230 246 -33 34 -58 64 -56 67 3 2 152 -13 333 -33 284 -33 330 -36
347 -24 20 13 18 17 -43 81 -143 151 -327 348 -354 380 l-28 33 41 39 c38 35
40 39 24 53 -10 9 -21 16 -24 16 -4 0 -54 -45 -111 -100z"/>
<path d="M2566 2557 c-25 -30 -46 -59 -46 -65 0 -23 34 -22 59 2 l26 24 120
-99 c66 -55 130 -110 143 -122 l22 -23 -92 -26 c-51 -14 -212 -56 -358 -93
-146 -37 -270 -72 -277 -78 -9 -9 42 -58 220 -208 l232 -197 35 37 c74 78 74
78 55 98 -17 16 -19 15 -51 -20 -19 -20 -37 -37 -40 -37 -5 0 -120 95 -134
111 -3 3 -42 36 -88 73 -46 38 -80 72 -75 76 4 4 166 46 358 95 193 48 356 92
364 98 15 13 34 -5 -225 212 -133 112 -171 148 -170 166 2 42 -29 33 -78 -24z"/>
<path d="M3310 1991 c-14 -27 -15 -26 35 -55 50 -30 53 -40 25 -76 -11 -14
-20 -28 -20 -31 0 -4 -30 -60 -67 -125 -99 -178 -115 -217 -114 -279 2 -170
213 -316 378 -261 96 32 125 68 277 346 32 58 61 108 65 113 4 4 29 -4 55 -19
39 -22 50 -24 57 -13 16 26 9 37 -41 68 -28 17 -52 31 -54 31 -2 0 -37 18 -76
41 -40 22 -73 39 -75 37 -1 -2 -8 -13 -14 -25 -11 -21 -8 -25 34 -45 25 -12
45 -28 45 -35 0 -18 -187 -353 -214 -381 -33 -37 -91 -62 -141 -62 -127 0
-213 105 -186 225 11 46 192 388 213 401 4 3 29 -6 55 -20 25 -15 47 -25 48
-24 1 2 7 12 13 24 10 19 4 25 -76 69 -48 27 -112 63 -143 82 -31 18 -59 33
-62 33 -4 0 -11 -9 -17 -19z"/>
<path d="M8430 1885 c-74 -46 -134 -86 -133 -90 14 -39 20 -40 71 -12 l49 27
147 -245 c80 -134 146 -249 146 -254 0 -6 -18 -22 -40 -36 -42 -26 -43 -29
-32 -57 6 -14 29 -3 147 68 77 47 141 91 143 98 2 7 -3 18 -11 24 -10 9 -22 6
-50 -13 -20 -14 -42 -25 -49 -25 -11 1 -100 144 -281 451 l-28 48 46 26 c25
15 45 29 45 32 0 10 -21 43 -28 42 -4 0 -68 -38 -142 -84z"/>
<path d="M7690 1535 c-182 -71 -182 -72 -170 -95 13 -24 16 -24 70 -5 24 8 46
13 49 10 3 -3 20 -45 38 -93 124 -324 164 -435 160 -446 -3 -7 -23 -18 -46
-25 -29 -8 -41 -17 -41 -31 0 -10 4 -21 9 -25 9 -5 408 140 498 180 8 4 -51
135 -60 135 -32 -1 -38 -16 -22 -55 9 -20 13 -41 8 -45 -19 -17 -226 -91 -234
-83 -4 4 -35 80 -68 168 -33 88 -76 202 -96 253 -19 51 -35 98 -35 106 0 7 21
21 46 31 36 14 45 21 42 38 -2 12 -10 23 -18 24 -8 1 -67 -18 -130 -42z"/>
<path d="M4537 1413 c-4 -3 -7 -14 -7 -24 0 -17 50 -39 88 -39 6 0 12 -8 12
-18 0 -26 -130 -545 -139 -555 -4 -4 -29 -2 -54 5 -51 13 -53 12 -59 -17 -3
-17 17 -25 202 -71 221 -57 271 -62 328 -39 55 23 81 53 98 111 26 90 -9 166
-98 212 l-38 19 40 7 c95 15 141 59 148 141 5 62 -13 103 -60 138 -41 31 -90
48 -275 93 -82 19 -155 37 -164 40 -8 2 -18 1 -22 -3z m296 -123 c106 -33 131
-88 85 -180 -18 -36 -32 -48 -64 -59 -36 -13 -46 -12 -98 4 -32 10 -60 24 -63
32 -4 10 24 151 43 211 5 17 21 15 97 -8z m-70 -299 c117 -32 154 -91 120
-191 -15 -46 -24 -58 -57 -74 -35 -17 -45 -18 -110 -6 -39 7 -81 16 -93 21
l-21 8 29 118 c37 146 36 143 51 143 8 0 44 -8 81 -19z"/>
<path d="M6673 1262 c-89 -15 -165 -30 -168 -34 -4 -3 -4 -16 0 -27 6 -19 13
-21 63 -19 l56 3 8 -55 c4 -30 24 -153 43 -272 19 -119 35 -223 35 -231 0 -9
-18 -17 -52 -23 -53 -9 -64 -19 -49 -43 8 -12 32 -11 156 8 172 26 175 27 175
51 0 26 -9 29 -60 20 -25 -5 -48 -5 -52 -2 -8 8 -38 188 -38 227 0 22 4 25 39
25 36 0 44 -6 142 -112 139 -152 139 -152 202 -144 110 14 118 17 115 40 -3
18 -12 22 -57 26 -54 6 -55 7 -153 109 -54 57 -98 106 -98 110 1 3 19 18 41
34 57 39 79 80 79 150 0 74 -18 117 -66 153 -33 26 -46 29 -118 31 -50 1 -143
-8 -243 -25z m260 -52 c33 -27 50 -80 45 -141 -8 -79 -43 -106 -164 -123 l-40
-6 -18 118 c-25 169 -26 156 14 163 77 14 136 10 163 -11z"/>
<path d="M6020 1224 c0 -15 -16 -16 -162 -10 -328 12 -313 13 -316 -17 -3 -26
-2 -27 54 -27 l57 0 -7 -242 c-4 -134 -9 -267 -13 -295 l-5 -53 -54 0 c-50 0
-54 -2 -54 -24 0 -27 -30 -24 403 -41 l137 -6 0 71 c0 68 -1 70 -24 70 -21 0
-25 -5 -28 -37 -3 -36 -5 -38 -43 -41 -22 -2 -80 -1 -130 3 l-90 6 3 127 c2
70 7 131 11 135 4 4 49 5 99 1 l91 -7 3 -36 c2 -29 8 -37 26 -39 19 -3 22 1
22 35 0 21 3 68 7 106 6 67 6 67 -19 67 -19 0 -27 -7 -32 -25 -4 -14 -4 -30
-1 -35 4 -6 -33 -10 -94 -10 l-101 0 0 131 0 131 128 -4 127 -3 3 -43 c3 -38
6 -43 25 -40 20 3 22 9 25 86 3 82 3 82 -23 82 -16 0 -25 -6 -25 -16z"/>
</g>
</svg>
